<?xml version="1.0" encoding="UTF-8" standalone="no" ?>
<!DOCTYPE svg PUBLIC "-//W3C//DTD SVG 1.1//EN" "http://www.w3.org/Graphics/SVG/1.1/DTD/svg11.dtd">
<svg xmlns="http://www.w3.org/2000/svg" xmlns:xlink="http://www.w3.org/1999/xlink" version="1.1" width="1080" height="1080" viewBox="0 0 1080 1080" xml:space="preserve">
<desc>Created with Fabric.js 5.2.4</desc>
<defs>
</defs>
<g transform="matrix(1 0 0 1 540 540)" id="12cf0497-7148-44a8-8477-1472a985b685"  >
<rect style="stroke: none; stroke-width: 1; stroke-dasharray: none; stroke-linecap: butt; stroke-dashoffset: 0; stroke-linejoin: miter; stroke-miterlimit: 4; fill: rgb(255,255,255); fill-rule: nonzero; opacity: 1; visibility: hidden;" vector-effect="non-scaling-stroke"  x="-540" y="-540" rx="0" ry="0" width="1080" height="1080" />
</g>
<g transform="matrix(1 0 0 1 540 540)" id="1f959d76-377f-45f8-8e20-8af4520a9317"  >
</g>
<g transform="matrix(1 0 0 1 540 540)" id="c2f4f36e-fbd1-4cb3-a6ad-83078ef29337"  >
<path style="stroke: rgb(0,0,0); stroke-width: 0; stroke-dasharray: none; stroke-linecap: butt; stroke-dashoffset: 0; stroke-linejoin: miter; stroke-miterlimit: 4; fill: rgb(246,246,246); fill-rule: nonzero; opacity: 1;" vector-effect="non-scaling-stroke"  transform=" translate(-224.05, -255.99)" d="M 368 128 C 368 172.4 342.6 211.5 304 234.4 L 304 256 C 304 273.7 289.7 288 272 288 L 176 288 C 158.3 288 144 273.7 144 256 L 144 234.4 C 105.4 211.4 80 172.3 80 128 C 80 57.3 144.5 0 224 0 C 303.5 0 368 57.3 368 128 z M 168 176 C 185.67311199458538 176 200 161.67311199458538 200 144 C 200 126.32688800541462 185.67311199458538 112 168 112 C 150.32688800541462 112 136 126.32688800541462 136 144 C 136 161.67311199458538 150.32688800541462 176 168 176 z M 312 144 C 312 126.32688800541462 297.6731119945854 112 280 112 C 262.3268880054146 112 248 126.3268880054146 248 144 C 248 161.67311199458538 262.3268880054146 176 280 176 C 297.6731119945854 176 312 161.67311199458538 312 144 z M 3.4 273.7 C 11.3 257.9 30.5 251.5 46.3 259.4 L 224 348.2 L 401.7 259.4 C 417.5 251.49999999999997 436.7 257.9 444.59999999999997 273.7 C 452.49999999999994 289.5 446.09999999999997 308.7 430.29999999999995 316.59999999999997 L 295.6 384 L 430.40000000000003 451.4 C 446.20000000000005 459.29999999999995 452.6 478.5 444.70000000000005 494.29999999999995 C 436.80000000000007 510.0999999999999 417.6 516.5 401.80000000000007 508.59999999999997 L 224 419.8 L 46.3 508.6 C 30.499999999999996 516.5 11.299999999999997 510.1 3.3999999999999986 494.3 C -4.5 478.5 1.8999999999999986 459.3 17.7 451.40000000000003 L 152.4 384 L 17.7 316.6 C 1.9 308.7 -4.5 289.5 3.4 273.7 z" stroke-linecap="round" />
</g>
</svg>