<?xml version="1.0" encoding="UTF-8" standalone="no" ?>
<!DOCTYPE svg PUBLIC "-//W3C//DTD SVG 1.1//EN" "http://www.w3.org/Graphics/SVG/1.1/DTD/svg11.dtd">
<svg xmlns="http://www.w3.org/2000/svg" xmlns:xlink="http://www.w3.org/1999/xlink" version="1.1" width="1080" height="1080" viewBox="0 0 1080 1080" xml:space="preserve">
<desc>Created with Fabric.js 5.2.4</desc>
<defs>
</defs>
<g transform="matrix(1 0 0 1 540 540)" id="7d2ec1f8-8de2-425f-b578-2ed775d1e9e1"  >
<rect style="stroke: none; stroke-width: 1; stroke-dasharray: none; stroke-linecap: butt; stroke-dashoffset: 0; stroke-linejoin: miter; stroke-miterlimit: 4; fill: rgb(255,255,255); fill-rule: nonzero; opacity: 1; visibility: hidden;" vector-effect="non-scaling-stroke"  x="-540" y="-540" rx="0" ry="0" width="1080" height="1080" />
</g>
<g transform="matrix(1 0 0 1 540 540)" id="e7edb827-590a-49e6-8dd9-1a3fa946a06b"  >
</g>
<g transform="matrix(1 0 0 1 540 540)" id="cce6c240-4f74-4d6a-bedf-62dfd66825a9"  >
<path style="stroke: rgb(0,0,0); stroke-width: 0; stroke-dasharray: none; stroke-linecap: butt; stroke-dashoffset: 0; stroke-linejoin: miter; stroke-miterlimit: 4; fill: rgb(244,244,244); fill-rule: nonzero; opacity: 1;" vector-effect="non-scaling-stroke"  transform=" translate(-256, -261.08)" d="M 228.3 469.1 L 47.6 300.4 C 43.4 296.5 39.400000000000006 292.29999999999995 35.7 288 L 122.7 288 C 145.3 288 165.7 274.4 174.4 253.5 L 184.9 228.3 L 234.2 337.8 C 238 346.3 246.29999999999998 351.8 255.6 351.90000000000003 C 264.9 352.00000000000006 273.4 346.90000000000003 277.6 338.6 L 320 253.7 L 321.7 257.09999999999997 C 331.2 276.09999999999997 350.59999999999997 288.09999999999997 371.8 288.09999999999997 L 476.3 288.09999999999997 C 472.6 292.4 468.6 296.59999999999997 464.40000000000003 300.49999999999994 L 283.7 469.1 C 276.2 476.1 266.3 480 256 480 C 245.7 480 235.8 476.1 228.3 469.1 z M 503.7 240 L 371.7 240 C 368.7 240 365.9 238.3 364.5 235.6 L 341.3 189.3 C 337.2 181.20000000000002 328.90000000000003 176 319.8 176 C 310.7 176 302.40000000000003 181.1 298.3 189.3 L 256.90000000000003 272.1 L 205.9 158.2 C 202 149.5 193.20000000000002 143.89999999999998 183.70000000000002 144.1 C 174.20000000000002 144.3 165.60000000000002 150 161.9 158.9 L 130.1 235.2 C 128.9 238.2 125.89999999999999 240.1 122.69999999999999 240.1 L 16 240.1 C 13.4 240.1 11 240.5 8.7 241.2 C 3 225.2 0 208.2 0 190.9 L 0 185.1 C 0 115.19999999999999 50.5 55.599999999999994 119.4 44.099999999999994 C 165 36.5 211.4 51.4 244 84 L 256 96 L 268 84 C 300.6 51.4 347 36.5 392.6 44.1 C 461.5 55.6 512 115.2 512 185.1 L 512 190.9 C 512 207.8 509.2 224.4 503.7 240 z" stroke-linecap="round" />
</g>
</svg>